<?xml version="1.0" standalone="no"?>
<!DOCTYPE svg PUBLIC "-//W3C//DTD SVG 20010904//EN"
 "http://www.w3.org/TR/2001/REC-SVG-20010904/DTD/svg10.dtd">
<svg version="1.0" xmlns="http://www.w3.org/2000/svg"
 width="300.000000pt" height="205.000000pt" viewBox="0 0 300.000000 205.000000"
 preserveAspectRatio="xMidYMid meet">

<g transform="translate(0.000000,205.000000) scale(0.100000,-0.100000)"
fill="#000000" stroke="none">
<path d="M2310 1680 c0 -148 -2 -270 -4 -270 -2 0 -23 11 -47 24 -123 68 -282
74 -405 17 -89 -42 -148 -91 -196 -165 -122 -188 -101 -416 52 -580 147 -157
359 -190 547 -85 l52 29 3 -43 3 -42 93 -3 92 -3 0 696 0 695 -95 0 -95 0 0
-270z m-178 -376 c62 -21 121 -74 152 -136 34 -69 37 -198 5 -268 -46 -102
-137 -160 -252 -160 -115 0 -195 50 -246 152 -27 52 -31 72 -31 137 0 90 22
146 78 204 78 82 187 108 294 71z"/>
<path d="M507 1483 c-4 -3 -7 -316 -7 -695 l0 -688 95 0 95 0 0 273 0 273 81
-40 c73 -36 89 -41 174 -44 120 -5 207 19 293 82 111 82 178 204 189 345 18
236 -149 449 -386 493 -103 19 -184 1 -343 -80 -5 -2 -8 17 -8 42 l0 46 -88 0
c-49 0 -92 -3 -95 -7z m578 -192 c62 -27 101 -66 134 -133 27 -52 31 -72 31
-137 0 -89 -19 -137 -77 -201 -177 -197 -499 -49 -480 220 14 204 211 330 392
251z"/>
</g>
</svg>
